# xmcd
#
# Track frame offsets: 
#        182
#        9022
#        22895
#        41735
#        53902
#        67845
#        82782
#        96102
#        110497
#        123810
#        138940
#        153585
#
# Disc length: 2191 seconds
#
# Revision: 0
# Processed by: cddbd v1.5.2PL0 Copyright (c) Steve Scherf et al.
# Submitted via: ExactAudioCopy v0.95a5
#
DISCID=83088d0c
DTITLE=The Nashvilee Sax - The Nashvilee Sax
DYEAR=1987
DGENRE=Country
TTITLE0=Yakety Sax
TTITLE1=Fairytale
TTITLE2=Please Come To Boston
TTITLE3=I'm Leaving It All Up To You
TTITLE4=Stealin'Fellin'
TTITLE5=Sundown
TTITLE6=Bad Bad Leroy Brown
TTITLE7=Rhinestone Cowboy
TTITLE8=I Can Help
TTITLE9=Third Rate Romance
TTITLE10=Honey Hungry
TTITLE11=You And Your Precious Love
EXTD=
EXTT0=
EXTT1=
EXTT2=
EXTT3=
EXTT4=
EXTT5=
EXTT6=
EXTT7=
EXTT8=
EXTT9=
EXTT10=
EXTT11=
PLAYORDER=
